Coordinates
nRows=274
nColumns=2
inDegrees=yes
endheader
time	ankle_angle_r	
2.52823	 -5.277279	
2.56149	 -5.274824	
2.59476	 -5.307603	
2.62802	 -5.264282	
2.66129	 -5.297449	
2.69456	 -5.307313	
2.72782	 -5.261440	
2.76109	 -5.288922	
2.79435	 -5.218506	
2.82762	 -5.245892	
2.86089	 -5.240222	
2.89415	 -5.215180	
2.92742	 -5.267704	
2.96069	 -5.249023	
2.99395	 -5.161086	
3.02722	 -5.138500	
3.06048	 -5.180347	
3.09375	 -5.249023	
3.12702	 -5.203247	
3.16028	 -5.214407	
3.19355	 -5.207443	
3.22681	 -5.218506	
3.26008	 -5.187988	
3.29335	 -5.244538	
3.32661	 -5.223088	
3.35988	 -5.250245	
3.39315	 -5.264282	
3.42641	 -5.198375	
3.45968	 -5.269603	
3.49294	 -5.284607	
3.52621	 -5.289866	
3.55948	 -5.300059	
3.59274	 -5.304703	
3.62601	 -5.269735	
3.65927	 -5.310059	
3.69254	 -5.290833	
3.72581	 -5.264282	
3.75907	 -5.313639	
3.79234	 -5.294800	
3.8256	 -5.276348	
3.85887	 -5.303929	
3.89214	 -5.301026	
3.9254	 -5.279541	
3.95867	 -5.288381	
3.99194	 -5.307832	
4.0252	 -5.264282	
4.05847	 -5.327157	
4.09173	 -5.296446	
4.125	 -5.271185	
4.15827	 -5.303059	
4.19153	 -5.279541	
4.2248	 -5.287607	
4.25806	 -5.249023	
4.29133	 -5.271668	
4.3246	 -5.225989	
4.35786	 -5.264282	
4.39113	 -5.226089	
4.4244	 -5.218506	
4.45766	 -5.234245	
4.49093	 -5.202573	
4.52419	 -5.203247	
4.55746	 -5.179829	
4.59073	 -5.203247	
4.62399	 -5.149117	
4.65726	 -5.249023	
4.69052	 -5.174563	
4.72379	 -5.218506	
4.75706	 -5.211987	
4.79032	 -5.194411	
4.82359	 -5.157471	
4.85685	 -5.233765	
4.89012	 -5.203247	
4.92339	 -5.157471	
4.95665	 -5.191370	
4.98992	 -5.245449	
5.02319	 -5.126953	
5.05645	 -5.203247	
5.08972	 -5.264282	
5.12298	 -5.182533	
5.15625	 -5.223865	
5.18952	 -5.228503	
5.22278	 -5.228599	
5.25605	 -5.294800	
5.28931	 -5.244051	
5.32258	 -5.279541	
5.35585	 -5.244245	
5.38911	 -5.258387	
5.42238	 -5.218506	
5.45565	 -5.198759	
5.48891	 -5.244632	
5.52218	 -5.233765	
5.55544	 -5.262747	
5.58871	 -5.283643	
5.62198	 -5.256272	
5.65524	 -5.218506	
5.68851	 -5.229953	
5.72177	 -5.233765	
5.75504	 -5.210484	
5.78831	 -5.222028	
5.82157	 -5.203247	
5.85484	 -5.254297	
5.8881	 -5.160702	
5.92137	 -5.130088	
5.95464	 -5.206285	
5.9879	 -5.276599	
6.02117	 -5.197557	
6.05444	 -5.182492	
6.0877	 -5.261631	
6.12097	 -5.172729	
6.15423	 -5.170271	
6.1875	 -5.131676	
6.22077	 -5.113959	
6.25403	 -5.218506	
6.2873	 -5.172729	
6.32056	 -5.157471	
6.35383	 -5.201369	
6.3871	 -5.216724	
6.42036	 -5.147266	
6.45363	 -5.262694	
6.4869	 -5.232274	
6.52016	 -5.246234	
6.55343	 -5.292204	
6.58669	 -5.173931	
6.61996	 -5.190197	
6.65323	 -5.203247	
6.68649	 -5.263371	
6.71976	 -5.204062	
6.75302	 -5.250459	
6.78629	 -5.278920	
6.81956	 -5.157471	
6.85282	 -5.218934	
6.88609	 -5.248361	
6.91935	 -5.081177	
6.95262	 -5.233627	
6.98589	 -5.218506	
7.01915	 -5.172729	
7.05242	 -5.157623	
7.08569	 -5.141963	
7.11895	 -5.158508	
7.15222	 -5.112579	
7.18548	 -5.250102	
7.21875	 -5.143484	
7.25202	 -5.185791	
7.28528	 -5.235423	
7.31855	 -5.141286	
7.35181	 -5.219528	
7.38508	 -5.157471	
7.41835	 -5.159903	
7.45161	 -5.218506	
7.48488	 -5.261464	
7.51815	 -5.187988	
7.55141	 -5.201644	
7.58468	 -5.216806	
7.61794	 -5.264282	
7.65121	 -5.220398	
7.68448	 -5.296789	
7.71774	 -5.220592	
7.75101	 -5.220689	
7.78427	 -5.277262	
7.81754	 -5.218506	
7.85081	 -5.299746	
7.88407	 -5.276971	
7.91734	 -5.264282	
7.9506	 -5.297563	
7.98387	 -5.297659	
8.01714	 -5.264282	
8.0504	 -5.279541	
8.08367	 -5.322168	
8.11694	 -5.279541	
8.1502	 -5.298143	
8.18347	 -5.321877	
8.21673	 -5.256096	
8.25	 -5.310059	
8.28327	 -5.298530	
8.31653	 -5.290973	
8.3498	 -5.306136	
8.38306	 -5.314078	
8.41633	 -5.264282	
8.4496	 -5.316891	
8.48286	 -5.336267	
8.51613	 -5.264282	
8.5494	 -5.294800	
8.58266	 -5.325317	
8.61593	 -5.294800	
8.64919	 -5.294800	
8.68246	 -5.310059	
8.71573	 -5.274554	
8.74899	 -5.289708	
8.78226	 -5.284721	
8.81552	 -5.264282	
8.84879	 -5.294800	
8.88206	 -5.289330	
8.91532	 -5.279541	
8.94859	 -5.228101	
8.98185	 -5.174751	
9.01512	 -5.176275	
9.04839	 -5.166776	
9.08165	 -5.267441	
9.11492	 -5.187988	
9.14819	 -5.133197	
9.18145	 -5.273201	
9.21472	 -5.190373	
9.24798	 -5.187988	
9.28125	 -5.216508	
9.31452	 -5.142212	
9.34778	 -5.240588	
9.38105	 -5.196327	
9.41431	 -5.143436	
9.44758	 -5.225620	
9.48085	 -5.196037	
9.51411	 -5.157471	
9.54738	 -5.218506	
9.58065	 -5.218506	
9.61391	 -5.210844	
9.64718	 -5.172858	
9.68044	 -5.202925	
9.71371	 -5.172214	
9.74698	 -5.195263	
9.78024	 -5.173632	
9.81351	 -5.219602	
9.84677	 -5.203247	
9.88004	 -5.179617	
9.91331	 -5.172729	
9.94657	 -5.233765	
9.97984	 -5.194586	
10.0131	 -5.196746	
10.0464	 -5.118099	
10.0796	 -5.126953	
10.1129	 -5.096436	
10.1462	 -5.120839	
10.1794	 -5.117712	
10.2127	 -5.096436	
10.246	 -5.178554	
10.2792	 -5.212778	
10.3125	 -5.203247	
10.3458	 -5.157471	
10.379	 -5.243586	
10.4123	 -5.197906	
10.4456	 -5.228520	
10.4788	 -5.264098	
10.5121	 -5.147263	
10.5454	 -5.192943	
10.5786	 -5.249023	
10.6119	 -5.208984	
10.6452	 -5.189254	
10.6784	 -5.300923	
10.7117	 -5.222977	
10.745	 -5.249023	
10.7782	 -5.275263	
10.8115	 -5.275360	
10.8448	 -5.279541	
10.878	 -5.325317	
10.9113	 -5.268173	
10.9446	 -5.298594	
10.9778	 -5.302664	
11.0111	 -5.275940	
11.0444	 -5.306554	
11.0776	 -5.310059	
11.1109	 -5.288178	
11.1442	 -5.303630	
11.1774	 -5.306941	
11.2107	 -5.249023	
11.244	 -5.304211	
11.2772	 -5.310059	
11.3105	 -5.292069	
11.3437	 -5.294800	
11.377	 -5.310059	
11.4103	 -5.264282	
11.4435	 -5.279541	
11.4768	 -5.310059	
11.5101	 -5.292649	
11.5433	 -5.275434	
11.5766	 -5.281498	
11.6099	 -5.249023	
